<svg>
    <symbol id="user" width="32" height="32" viewBox="0 0 32 32" fill="none" xmlns="http://www.w3.org/2000/svg">
        <path d="M25.3333 4.00016H19.76C19.2 2.4535 17.7333 1.3335 16 1.3335C14.2667 1.3335 12.8 2.4535 12.24 4.00016H6.66667C5.2 4.00016 4 5.20016 4 6.66683V25.3335C4 26.8002 5.2 28.0002 6.66667 28.0002H25.3333C26.8 28.0002 28 26.8002 28 25.3335V6.66683C28 5.20016 26.8 4.00016 25.3333 4.00016ZM16 4.00016C16.7333 4.00016 17.3333 4.60016 17.3333 5.3335C17.3333 6.06683 16.7333 6.66683 16 6.66683C15.2667 6.66683 14.6667 6.06683 14.6667 5.3335C14.6667 4.60016 15.2667 4.00016 16 4.00016ZM16 9.3335C18.2133 9.3335 20 11.1202 20 13.3335C20 15.5468 18.2133 17.3335 16 17.3335C13.7867 17.3335 12 15.5468 12 13.3335C12 11.1202 13.7867 9.3335 16 9.3335ZM24 25.3335H8V23.4668C8 20.8002 13.3333 19.3335 16 19.3335C18.6667 19.3335 24 20.8002 24 23.4668V25.3335Z" fill="#FF3214"/>
    </symbol>

    <symbol id="search" width="24" height="24" viewBox="0 0 24 24" fill="none" xmlns="http://www.w3.org/2000/svg">
        <path d="M15.5 14H14.71L14.43 13.73C15.41 12.59 16 11.11 16 9.5C16 5.91 13.09 3 9.5 3C5.91 3 3 5.91 3 9.5C3 13.09 5.91 16 9.5 16C11.11 16 12.59 15.41 13.73 14.43L14 14.71V15.5L19 20.49L20.49 19L15.5 14V14ZM9.5 14C7.01 14 5 11.99 5 9.5C5 7.01 7.01 5 9.5 5C11.99 5 14 7.01 14 9.5C14 11.99 11.99 14 9.5 14Z" fill="#969595"/>
    </symbol>

    <symbol id="search-black" width="24" height="24" viewBox="0 0 24 24" fill="none" xmlns="http://www.w3.org/2000/svg">
        <path d="M15.5 14H14.71L14.43 13.73C15.41 12.59 16 11.11 16 9.5C16 5.91 13.09 3 9.5 3C5.91 3 3 5.91 3 9.5C3 13.09 5.91 16 9.5 16C11.11 16 12.59 15.41 13.73 14.43L14 14.71V15.5L19 20.49L20.49 19L15.5 14V14ZM9.5 14C7.01 14 5 11.99 5 9.5C5 7.01 7.01 5 9.5 5C11.99 5 14 7.01 14 9.5C14 11.99 11.99 14 9.5 14Z" fill="#201D1D"/>
    </symbol>

    <symbol id="shield" width="32" height="32" viewBox="0 0 32 32" fill="none" xmlns="http://www.w3.org/2000/svg">
        <path d="M16 1.33331L4 6.66665V14.6666C4 22.0666 9.12 28.9866 16 30.6666C22.88 28.9866 28 22.0666 28 14.6666V6.66665L16 1.33331ZM13.3333 22.6666L8 17.3333L9.88 15.4533L13.3333 18.8933L22.12 10.1066L24 12L13.3333 22.6666Z" fill="#FF3214"/>
    </symbol>

    <symbol id="whatshot" width="32" height="32" viewBox="0 0 32 32" fill="none" xmlns="http://www.w3.org/2000/svg">
        <path d="M18.0002 0.893311C18.0002 0.893311 18.9868 4.42664 18.9868 7.29331C18.9868 10.04 17.1868 12.2666 14.4402 12.2666C11.6802 12.2666 9.60016 10.04 9.60016 7.29331L9.64016 6.81331C6.94683 10.0133 5.3335 14.16 5.3335 18.6666C5.3335 24.56 10.1068 29.3333 16.0002 29.3333C21.8935 29.3333 26.6668 24.56 26.6668 18.6666C26.6668 11.48 23.2135 5.06664 18.0002 0.893311ZM15.6135 25.3333C13.2402 25.3333 11.3202 23.4666 11.3202 21.1466C11.3202 18.9866 12.7202 17.4666 15.0668 16.9866C17.4268 16.5066 19.8668 15.3733 21.2268 13.5466C21.7468 15.2666 22.0135 17.08 22.0135 18.9333C22.0135 22.4666 19.1468 25.3333 15.6135 25.3333Z" fill="#FF3214"/>
    </symbol>
    
    <symbol id="skype" width="12" height="12" viewBox="0 0 12 12" fill="none" xmlns="http://www.w3.org/2000/svg">
        <g opacity="0.6">
            <path d="M11.655 7.2735C11.742 6.88275 11.787 6.47775 11.787 6.06225C11.787 2.946 9.225 0.41925 6.06375 0.41925C5.73075 0.41925 5.40375 0.44775 5.085 0.50175C4.5735 0.1845 3.96825 0 3.3195 0C1.48575 0 0 1.46475 0 3.273C0 3.87675 0.1665 4.4415 0.456 4.92825C0.38025 5.29425 0.33975 5.67375 0.33975 6.06225C0.33975 9.17925 2.9025 11.706 6.063 11.706C6.4215 11.706 6.77175 11.673 7.1115 11.6115C7.5795 11.859 8.1135 12 8.68125 12C10.5142 12 12 10.5345 12 8.72775C12 8.205 11.8755 7.71225 11.655 7.2735ZM8.99925 8.75925C8.7345 9.129 8.34375 9.4215 7.836 9.6285C7.33425 9.83475 6.7335 9.93975 6.048 9.93975C5.226 9.93975 4.53675 9.79725 3.99825 9.51525C3.6135 9.3105 3.297 9.03375 3.05625 8.69025C2.8125 8.34525 2.69025 8.0025 2.69025 7.671C2.69025 7.46475 2.7705 7.2855 2.92875 7.13925C3.0855 6.993 3.2865 6.92025 3.5265 6.92025C3.723 6.92025 3.8925 6.978 4.0305 7.09275C4.16175 7.203 4.275 7.3665 4.36575 7.57575C4.467 7.80525 4.57725 7.99875 4.6935 8.1495C4.80675 8.29725 4.968 8.42025 5.17425 8.517C5.382 8.613 5.66175 8.66325 6.00525 8.66325C6.4785 8.66325 6.867 8.5635 7.158 8.367C7.44375 8.17575 7.58175 7.94475 7.58175 7.66275C7.58175 7.44075 7.509 7.26525 7.36125 7.128C7.20525 6.984 6.99975 6.87225 6.75075 6.795C6.4905 6.7155 6.13725 6.6285 5.70075 6.5385C5.106 6.41325 4.60125 6.26475 4.20075 6.096C3.7905 5.9235 3.459 5.685 3.2175 5.3865C2.9715 5.08275 2.847 4.7025 2.847 4.2555C2.847 3.8295 2.9775 3.4455 3.2355 3.114C3.49125 2.78475 3.86475 2.5275 4.347 2.35275C4.82175 2.1795 5.3865 2.09175 6.02625 2.09175C6.537 2.09175 6.98625 2.15025 7.362 2.26575C7.73925 2.38125 8.05725 2.53725 8.307 2.73C8.559 2.925 8.7465 3.13125 8.8635 3.34725C8.982 3.56475 9.04275 3.7815 9.04275 3.99075C9.04275 4.1925 8.964 4.37625 8.808 4.53525C8.6505 4.6965 8.4525 4.7775 8.22 4.7775C8.0085 4.7775 7.842 4.72575 7.72725 4.626C7.62 4.53225 7.50825 4.386 7.38525 4.1775C7.24275 3.9105 7.0695 3.69975 6.8715 3.5505C6.67875 3.40575 6.35775 3.33375 5.91525 3.33375C5.50575 3.33375 5.17125 3.41475 4.92375 3.57525C4.68525 3.729 4.569 3.906 4.569 4.116C4.569 4.24425 4.6065 4.3515 4.68375 4.44375C4.76475 4.54275 4.8795 4.6275 5.025 4.6995C5.175 4.77375 5.33025 4.83375 5.4855 4.87575C5.6445 4.91925 5.91075 4.9845 6.2775 5.06775C6.741 5.16525 7.16625 5.2755 7.54275 5.39475C7.9245 5.514 8.253 5.66175 8.523 5.835C8.79675 6.01125 9.0135 6.23625 9.168 6.50625C9.3225 6.7785 9.4005 7.11225 9.4005 7.50075C9.39975 7.965 9.26475 8.38875 8.99925 8.75925Z" fill="white"/>
        </g>
    </symbol>

    <symbol id="phone" width="16" height="16" viewBox="0 0 16 16" fill="none" xmlns="http://www.w3.org/2000/svg">
        <g opacity="0.6">
            <path d="M4.41333 7.19333C5.37333 9.08 6.92 10.62 8.80667 11.5867L10.2733 10.12C10.4533 9.94 10.72 9.88 10.9533 9.96C11.7 10.2067 12.5067 10.34 13.3333 10.34C13.7 10.34 14 10.64 14 11.0067V13.3333C14 13.7 13.7 14 13.3333 14C7.07333 14 2 8.92667 2 2.66667C2 2.3 2.3 2 2.66667 2H5C5.36667 2 5.66667 2.3 5.66667 2.66667C5.66667 3.5 5.8 4.3 6.04667 5.04667C6.12 5.28 6.06667 5.54 5.88 5.72667L4.41333 7.19333Z" fill="white"/>
        </g>
    </symbol>

    <symbol id="mail" width="16" height="16" viewBox="0 0 16 16" fill="none" xmlns="http://www.w3.org/2000/svg">
        <g opacity="0.6">
            <path d="M13.3334 2.66675H2.66671C1.93337 2.66675 1.34004 3.26675 1.34004 4.00008L1.33337 12.0001C1.33337 12.7334 1.93337 13.3334 2.66671 13.3334H13.3334C14.0667 13.3334 14.6667 12.7334 14.6667 12.0001V4.00008C14.6667 3.26675 14.0667 2.66675 13.3334 2.66675ZM13.3334 5.33341L8.00004 8.66675L2.66671 5.33341V4.00008L8.00004 7.33341L13.3334 4.00008V5.33341Z" fill="white"/>
        </g>
    </symbol>

    <symbol id="smartphone" width="16" height="16" viewBox="0 0 16 16" fill="none" xmlns="http://www.w3.org/2000/svg">
        <g opacity="0.6">
            <path d="M11.3334 0.673415L4.66671 0.666748C3.93337 0.666748 3.33337 1.26675 3.33337 2.00008V14.0001C3.33337 14.7334 3.93337 15.3334 4.66671 15.3334H11.3334C12.0667 15.3334 12.6667 14.7334 12.6667 14.0001V2.00008C12.6667 1.26675 12.0667 0.673415 11.3334 0.673415ZM11.3334 12.6667H4.66671V3.33341H11.3334V12.6667Z" fill="white"/>
        </g>
    </symbol>

    <symbol id="quote" width="40" height="40" viewBox="0 0 64 64" fill="none" xmlns="http://www.w3.org/2000/svg">
        <path d="M16 45.3333H24L29.3334 34.6666V18.6666H13.3334V34.6666H21.3334L16 45.3333ZM37.3334 45.3333H45.3334L50.6667 34.6666V18.6666H34.6667V34.6666H42.6667L37.3334 45.3333Z" fill="#FF3214"/>
    </symbol>

</svg>
