<svg>
    <symbol id="user" width="32" height="32" viewBox="0 0 32 32" fill="none" xmlns="http://www.w3.org/2000/svg">
        <path d="M25.3333 4.00016H19.76C19.2 2.4535 17.7333 1.3335 16 1.3335C14.2667 1.3335 12.8 2.4535 12.24 4.00016H6.66667C5.2 4.00016 4 5.20016 4 6.66683V25.3335C4 26.8002 5.2 28.0002 6.66667 28.0002H25.3333C26.8 28.0002 28 26.8002 28 25.3335V6.66683C28 5.20016 26.8 4.00016 25.3333 4.00016ZM16 4.00016C16.7333 4.00016 17.3333 4.60016 17.3333 5.3335C17.3333 6.06683 16.7333 6.66683 16 6.66683C15.2667 6.66683 14.6667 6.06683 14.6667 5.3335C14.6667 4.60016 15.2667 4.00016 16 4.00016ZM16 9.3335C18.2133 9.3335 20 11.1202 20 13.3335C20 15.5468 18.2133 17.3335 16 17.3335C13.7867 17.3335 12 15.5468 12 13.3335C12 11.1202 13.7867 9.3335 16 9.3335ZM24 25.3335H8V23.4668C8 20.8002 13.3333 19.3335 16 19.3335C18.6667 19.3335 24 20.8002 24 23.4668V25.3335Z" fill="#FF3214"/>
    </symbol>

    <symbol id="search" width="24" height="24" viewBox="0 0 24 24" fill="none" xmlns="http://www.w3.org/2000/svg">
        <path d="M15.5 14H14.71L14.43 13.73C15.41 12.59 16 11.11 16 9.5C16 5.91 13.09 3 9.5 3C5.91 3 3 5.91 3 9.5C3 13.09 5.91 16 9.5 16C11.11 16 12.59 15.41 13.73 14.43L14 14.71V15.5L19 20.49L20.49 19L15.5 14V14ZM9.5 14C7.01 14 5 11.99 5 9.5C5 7.01 7.01 5 9.5 5C11.99 5 14 7.01 14 9.5C14 11.99 11.99 14 9.5 14Z" fill="#969595"/>
    </symbol>

    <symbol id="shield" width="32" height="32" viewBox="0 0 32 32" fill="none" xmlns="http://www.w3.org/2000/svg">
        <path d="M16 1.33331L4 6.66665V14.6666C4 22.0666 9.12 28.9866 16 30.6666C22.88 28.9866 28 22.0666 28 14.6666V6.66665L16 1.33331ZM13.3333 22.6666L8 17.3333L9.88 15.4533L13.3333 18.8933L22.12 10.1066L24 12L13.3333 22.6666Z" fill="#FF3214"/>
    </symbol>

    <symbol id="whatshot" width="32" height="32" viewBox="0 0 32 32" fill="none" xmlns="http://www.w3.org/2000/svg">
        <path d="M18.0002 0.893311C18.0002 0.893311 18.9868 4.42664 18.9868 7.29331C18.9868 10.04 17.1868 12.2666 14.4402 12.2666C11.6802 12.2666 9.60016 10.04 9.60016 7.29331L9.64016 6.81331C6.94683 10.0133 5.3335 14.16 5.3335 18.6666C5.3335 24.56 10.1068 29.3333 16.0002 29.3333C21.8935 29.3333 26.6668 24.56 26.6668 18.6666C26.6668 11.48 23.2135 5.06664 18.0002 0.893311ZM15.6135 25.3333C13.2402 25.3333 11.3202 23.4666 11.3202 21.1466C11.3202 18.9866 12.7202 17.4666 15.0668 16.9866C17.4268 16.5066 19.8668 15.3733 21.2268 13.5466C21.7468 15.2666 22.0135 17.08 22.0135 18.9333C22.0135 22.4666 19.1468 25.3333 15.6135 25.3333Z" fill="#FF3214"/>
    </symbol>
    
</svg>
